<?xml version="1.0" encoding="UTF-8" standalone="no"?>
<!DOCTYPE svg PUBLIC "-//W3C//DTD SVG 1.1//EN"
 "http://www.w3.org/Graphics/SVG/1.1/DTD/svg11.dtd">
<!-- Generated by graphviz version 5.0.0 (20220707.1540)
 -->
<!-- Title: dependencies Pages: 1 -->
<svg width="1724pt" height="247pt"
 viewBox="0.00 0.00 1724.00 246.80" xmlns="http://www.w3.org/2000/svg" xmlns:xlink="http://www.w3.org/1999/xlink">
<g id="graph0" class="graph" transform="scale(1 1) rotate(0) translate(4 242.8)">
<title>dependencies</title>
<polygon fill="white" stroke="transparent" points="-4,4 -4,-242.8 1720,-242.8 1720,4 -4,4"/>
<text text-anchor="middle" x="858" y="-8.2" font-family="sans-serif" font-size="14.00">dependencies</text>
<g id="clust1" class="cluster">
<title>cluster_AppModule</title>
<polygon fill="none" stroke="black" stroke-dasharray="1,5" points="8,-32.8 8,-230.8 1708,-230.8 1708,-32.8 8,-32.8"/>
</g>
<g id="clust14" class="cluster">
<title>cluster_AppModule_imports</title>
<polygon fill="none" stroke="black" points="1556,-40.8 1556,-92.8 1700,-92.8 1700,-40.8 1556,-40.8"/>
</g>
<g id="clust16" class="cluster">
<title>cluster_AppModule_bootstrap</title>
<polygon fill="none" stroke="black" points="812,-170.8 812,-222.8 936,-222.8 936,-170.8 812,-170.8"/>
</g>
<g id="clust2" class="cluster">
<title>cluster_AppModule_declarations</title>
<polygon fill="none" stroke="black" points="16,-40.8 16,-92.8 1548,-92.8 1548,-40.8 16,-40.8"/>
</g>
<!-- AppComponent -->
<g id="node1" class="node">
<title>AppComponent</title>
<polygon fill="#ffffb3" stroke="black" points="1539.94,-84.8 1434.06,-84.8 1434.06,-48.8 1539.94,-48.8 1539.94,-84.8"/>
<text text-anchor="middle" x="1487" y="-62.6" font-family="Times,serif" font-size="14.00">AppComponent</text>
</g>
<!-- AppModule -->
<g id="node12" class="node">
<title>AppModule</title>
<polygon fill="#8dd3c7" stroke="black" points="915.66,-149.8 912.66,-153.8 891.66,-153.8 888.66,-149.8 832.34,-149.8 832.34,-113.8 915.66,-113.8 915.66,-149.8"/>
<text text-anchor="middle" x="874" y="-127.6" font-family="Times,serif" font-size="14.00">AppModule</text>
</g>
<!-- AppComponent&#45;&gt;AppModule -->
<g id="edge1" class="edge">
<title>AppComponent&#45;&gt;AppModule</title>
<path fill="none" stroke="black" d="M1487,-85.08C1487,-106.12 1487,-137.8 1487,-137.8 1487,-137.8 926.13,-137.8 926.13,-137.8"/>
<polygon fill="black" stroke="black" points="926.13,-134.3 916.13,-137.8 926.13,-141.3 926.13,-134.3"/>
</g>
<!-- ContactComponent -->
<g id="node2" class="node">
<title>ContactComponent</title>
<polygon fill="#ffffb3" stroke="black" points="1416.38,-84.8 1291.62,-84.8 1291.62,-48.8 1416.38,-48.8 1416.38,-84.8"/>
<text text-anchor="middle" x="1354" y="-62.6" font-family="Times,serif" font-size="14.00">ContactComponent</text>
</g>
<!-- ContactComponent&#45;&gt;AppModule -->
<g id="edge2" class="edge">
<title>ContactComponent&#45;&gt;AppModule</title>
<path fill="none" stroke="black" d="M1354,-84.91C1354,-104.14 1354,-131.8 1354,-131.8 1354,-131.8 925.76,-131.8 925.76,-131.8"/>
<polygon fill="black" stroke="black" points="925.76,-128.3 915.76,-131.8 925.76,-135.3 925.76,-128.3"/>
</g>
<!-- DetailComponent -->
<g id="node3" class="node">
<title>DetailComponent</title>
<polygon fill="#ffffb3" stroke="black" points="1273.54,-84.8 1158.46,-84.8 1158.46,-48.8 1273.54,-48.8 1273.54,-84.8"/>
<text text-anchor="middle" x="1216" y="-62.6" font-family="Times,serif" font-size="14.00">DetailComponent</text>
</g>
<!-- DetailComponent&#45;&gt;AppModule -->
<g id="edge3" class="edge">
<title>DetailComponent&#45;&gt;AppModule</title>
<path fill="none" stroke="black" d="M1216,-84.82C1216,-102.17 1216,-125.8 1216,-125.8 1216,-125.8 925.94,-125.8 925.94,-125.8"/>
<polygon fill="black" stroke="black" points="925.94,-122.3 915.94,-125.8 925.94,-129.3 925.94,-122.3"/>
</g>
<!-- FooterComponent -->
<g id="node4" class="node">
<title>FooterComponent</title>
<polygon fill="#ffffb3" stroke="black" points="1139.88,-84.8 1022.12,-84.8 1022.12,-48.8 1139.88,-48.8 1139.88,-84.8"/>
<text text-anchor="middle" x="1081" y="-62.6" font-family="Times,serif" font-size="14.00">FooterComponent</text>
</g>
<!-- FooterComponent&#45;&gt;AppModule -->
<g id="edge4" class="edge">
<title>FooterComponent&#45;&gt;AppModule</title>
<path fill="none" stroke="black" d="M1081,-85.04C1081,-100.37 1081,-119.8 1081,-119.8 1081,-119.8 925.89,-119.8 925.89,-119.8"/>
<polygon fill="black" stroke="black" points="925.89,-116.3 915.89,-119.8 925.89,-123.3 925.89,-116.3"/>
</g>
<!-- HeaderComponent -->
<g id="node5" class="node">
<title>HeaderComponent</title>
<polygon fill="#ffffb3" stroke="black" points="1003.75,-84.8 882.25,-84.8 882.25,-48.8 1003.75,-48.8 1003.75,-84.8"/>
<text text-anchor="middle" x="943" y="-62.6" font-family="Times,serif" font-size="14.00">HeaderComponent</text>
</g>
<!-- HeaderComponent&#45;&gt;AppModule -->
<g id="edge5" class="edge">
<title>HeaderComponent&#45;&gt;AppModule</title>
<path fill="none" stroke="black" d="M898.98,-84.91C898.98,-84.91 898.98,-103.79 898.98,-103.79"/>
<polygon fill="black" stroke="black" points="895.48,-103.79 898.98,-113.79 902.48,-103.79 895.48,-103.79"/>
</g>
<!-- HomeComponent -->
<g id="node6" class="node">
<title>HomeComponent</title>
<polygon fill="#ffffb3" stroke="black" points="863.55,-84.8 748.45,-84.8 748.45,-48.8 863.55,-48.8 863.55,-84.8"/>
<text text-anchor="middle" x="806" y="-62.6" font-family="Times,serif" font-size="14.00">HomeComponent</text>
</g>
<!-- HomeComponent&#45;&gt;AppModule -->
<g id="edge6" class="edge">
<title>HomeComponent&#45;&gt;AppModule</title>
<path fill="none" stroke="black" d="M847.97,-84.91C847.97,-84.91 847.97,-103.79 847.97,-103.79"/>
<polygon fill="black" stroke="black" points="844.47,-103.79 847.97,-113.79 851.47,-103.79 844.47,-103.79"/>
</g>
<!-- ProfilComponent -->
<g id="node7" class="node">
<title>ProfilComponent</title>
<polygon fill="#ffffb3" stroke="black" points="730.72,-84.8 617.28,-84.8 617.28,-48.8 730.72,-48.8 730.72,-84.8"/>
<text text-anchor="middle" x="674" y="-62.6" font-family="Times,serif" font-size="14.00">ProfilComponent</text>
</g>
<!-- ProfilComponent&#45;&gt;AppModule -->
<g id="edge7" class="edge">
<title>ProfilComponent&#45;&gt;AppModule</title>
<path fill="none" stroke="black" d="M674,-85.04C674,-100.37 674,-119.8 674,-119.8 674,-119.8 822.07,-119.8 822.07,-119.8"/>
<polygon fill="black" stroke="black" points="822.07,-123.3 832.07,-119.8 822.07,-116.3 822.07,-123.3"/>
</g>
<!-- RegisterComponent -->
<g id="node8" class="node">
<title>RegisterComponent</title>
<polygon fill="#ffffb3" stroke="black" points="598.99,-84.8 471.01,-84.8 471.01,-48.8 598.99,-48.8 598.99,-84.8"/>
<text text-anchor="middle" x="535" y="-62.6" font-family="Times,serif" font-size="14.00">RegisterComponent</text>
</g>
<!-- RegisterComponent&#45;&gt;AppModule -->
<g id="edge8" class="edge">
<title>RegisterComponent&#45;&gt;AppModule</title>
<path fill="none" stroke="black" d="M535,-84.82C535,-102.17 535,-125.8 535,-125.8 535,-125.8 822.09,-125.8 822.09,-125.8"/>
<polygon fill="black" stroke="black" points="822.09,-129.3 832.09,-125.8 822.09,-122.3 822.09,-129.3"/>
</g>
<!-- RegisterFormComponent -->
<g id="node9" class="node">
<title>RegisterFormComponent</title>
<polygon fill="#ffffb3" stroke="black" points="453.32,-84.8 294.68,-84.8 294.68,-48.8 453.32,-48.8 453.32,-84.8"/>
<text text-anchor="middle" x="374" y="-62.6" font-family="Times,serif" font-size="14.00">RegisterFormComponent</text>
</g>
<!-- RegisterFormComponent&#45;&gt;AppModule -->
<g id="edge9" class="edge">
<title>RegisterFormComponent&#45;&gt;AppModule</title>
<path fill="none" stroke="black" d="M374,-84.91C374,-104.14 374,-131.8 374,-131.8 374,-131.8 822.23,-131.8 822.23,-131.8"/>
<polygon fill="black" stroke="black" points="822.23,-135.3 832.23,-131.8 822.23,-128.3 822.23,-135.3"/>
</g>
<!-- SpaceComponent -->
<g id="node10" class="node">
<title>SpaceComponent</title>
<polygon fill="#ffffb3" stroke="black" points="276.26,-84.8 161.74,-84.8 161.74,-48.8 276.26,-48.8 276.26,-84.8"/>
<text text-anchor="middle" x="219" y="-62.6" font-family="Times,serif" font-size="14.00">SpaceComponent</text>
</g>
<!-- SpaceComponent&#45;&gt;AppModule -->
<g id="edge10" class="edge">
<title>SpaceComponent&#45;&gt;AppModule</title>
<path fill="none" stroke="black" d="M219,-85.08C219,-106.12 219,-137.8 219,-137.8 219,-137.8 822.03,-137.8 822.03,-137.8"/>
<polygon fill="black" stroke="black" points="822.03,-141.3 832.03,-137.8 822.03,-134.3 822.03,-141.3"/>
</g>
<!-- SpacesComponent -->
<g id="node11" class="node">
<title>SpacesComponent</title>
<polygon fill="#ffffb3" stroke="black" points="144.21,-84.8 23.79,-84.8 23.79,-48.8 144.21,-48.8 144.21,-84.8"/>
<text text-anchor="middle" x="84" y="-62.6" font-family="Times,serif" font-size="14.00">SpacesComponent</text>
</g>
<!-- SpacesComponent&#45;&gt;AppModule -->
<g id="edge11" class="edge">
<title>SpacesComponent&#45;&gt;AppModule</title>
<path fill="none" stroke="black" d="M84,-85.05C84,-107.82 84,-143.8 84,-143.8 84,-143.8 822.08,-143.8 822.08,-143.8"/>
<polygon fill="black" stroke="black" points="822.08,-147.3 832.08,-143.8 822.08,-140.3 822.08,-147.3"/>
</g>
<!-- AppComponent  -->
<g id="node14" class="node">
<title>AppComponent </title>
<polygon fill="#80b1d3" stroke="black" points="928.44,-214.8 819.56,-214.8 819.56,-178.8 928.44,-178.8 928.44,-214.8"/>
<text text-anchor="middle" x="874" y="-192.6" font-family="Times,serif" font-size="14.00">AppComponent </text>
</g>
<!-- AppModule&#45;&gt;AppComponent  -->
<g id="edge13" class="edge">
<title>AppModule&#45;&gt;AppComponent </title>
<path fill="none" stroke="black" stroke-dasharray="1,5" d="M874,-149.91C874,-149.91 874,-168.79 874,-168.79"/>
<polygon fill="black" stroke="black" points="870.5,-168.79 874,-178.79 877.5,-168.79 870.5,-168.79"/>
</g>
<!-- AppRoutingModule -->
<g id="node13" class="node">
<title>AppRoutingModule</title>
<polygon fill="#8dd3c7" stroke="black" points="1692.28,-84.8 1689.28,-88.8 1668.28,-88.8 1665.28,-84.8 1563.72,-84.8 1563.72,-48.8 1692.28,-48.8 1692.28,-84.8"/>
<text text-anchor="middle" x="1628" y="-62.6" font-family="Times,serif" font-size="14.00">AppRoutingModule</text>
</g>
<!-- AppRoutingModule&#45;&gt;AppModule -->
<g id="edge12" class="edge">
<title>AppRoutingModule&#45;&gt;AppModule</title>
<path fill="none" stroke="black" d="M1628,-85.05C1628,-107.82 1628,-143.8 1628,-143.8 1628,-143.8 925.88,-143.8 925.88,-143.8"/>
<polygon fill="black" stroke="black" points="925.88,-140.3 915.88,-143.8 925.88,-147.3 925.88,-140.3"/>
</g>
</g>
</svg>
