<?xml version="1.0" encoding="UTF-8" standalone="no"?>
<!DOCTYPE svg PUBLIC "-//W3C//DTD SVG 1.1//EN"
 "http://www.w3.org/Graphics/SVG/1.1/DTD/svg11.dtd">
<!-- Generated by graphviz version 5.0.0 (20220707.1540)
 -->
<!-- Title: dependencies Pages: 1 -->
<svg width="1724pt" height="247pt"
 viewBox="0.00 0.00 1724.00 246.80" xmlns="http://www.w3.org/2000/svg" xmlns:xlink="http://www.w3.org/1999/xlink">
<g id="graph0" class="graph" transform="scale(1 1) rotate(0) translate(4 242.8)">
<title>dependencies</title>
<polygon fill="white" stroke="transparent" points="-4,4 -4,-242.8 1720,-242.8 1720,4 -4,4"/>
<text text-anchor="middle" x="858" y="-8.2" font-family="sans-serif" font-size="14.00">dependencies</text>
<g id="clust1" class="cluster">
<title>cluster_AppModule</title>
<polygon fill="none" stroke="black" stroke-dasharray="1,5" points="8,-32.8 8,-230.8 1708,-230.8 1708,-32.8 8,-32.8"/>
</g>
<g id="clust2" class="cluster">
<title>cluster_AppModule_declarations</title>
<polygon fill="none" stroke="black" points="168,-40.8 168,-92.8 1700,-92.8 1700,-40.8 168,-40.8"/>
</g>
<g id="clust14" class="cluster">
<title>cluster_AppModule_imports</title>
<polygon fill="none" stroke="black" points="16,-40.8 16,-92.8 160,-92.8 160,-40.8 16,-40.8"/>
</g>
<g id="clust16" class="cluster">
<title>cluster_AppModule_bootstrap</title>
<polygon fill="none" stroke="black" points="830,-170.8 830,-222.8 954,-222.8 954,-170.8 830,-170.8"/>
</g>
<!-- AppComponent -->
<g id="node1" class="node">
<title>AppComponent</title>
<polygon fill="#ffffb3" stroke="black" points="1691.94,-84.8 1586.06,-84.8 1586.06,-48.8 1691.94,-48.8 1691.94,-84.8"/>
<text text-anchor="middle" x="1639" y="-62.6" font-family="Times,serif" font-size="14.00">AppComponent</text>
</g>
<!-- AppModule -->
<g id="node12" class="node">
<title>AppModule</title>
<polygon fill="#8dd3c7" stroke="black" points="933.66,-149.8 930.66,-153.8 909.66,-153.8 906.66,-149.8 850.34,-149.8 850.34,-113.8 933.66,-113.8 933.66,-149.8"/>
<text text-anchor="middle" x="892" y="-127.6" font-family="Times,serif" font-size="14.00">AppModule</text>
</g>
<!-- AppComponent&#45;&gt;AppModule -->
<g id="edge1" class="edge">
<title>AppComponent&#45;&gt;AppModule</title>
<path fill="none" stroke="black" d="M1639,-85.05C1639,-107.82 1639,-143.8 1639,-143.8 1639,-143.8 943.76,-143.8 943.76,-143.8"/>
<polygon fill="black" stroke="black" points="943.76,-140.3 933.76,-143.8 943.76,-147.3 943.76,-140.3"/>
</g>
<!-- ContactComponent -->
<g id="node2" class="node">
<title>ContactComponent</title>
<polygon fill="#ffffb3" stroke="black" points="1568.38,-84.8 1443.62,-84.8 1443.62,-48.8 1568.38,-48.8 1568.38,-84.8"/>
<text text-anchor="middle" x="1506" y="-62.6" font-family="Times,serif" font-size="14.00">ContactComponent</text>
</g>
<!-- ContactComponent&#45;&gt;AppModule -->
<g id="edge2" class="edge">
<title>ContactComponent&#45;&gt;AppModule</title>
<path fill="none" stroke="black" d="M1506,-85.08C1506,-106.12 1506,-137.8 1506,-137.8 1506,-137.8 943.72,-137.8 943.72,-137.8"/>
<polygon fill="black" stroke="black" points="943.72,-134.3 933.72,-137.8 943.72,-141.3 943.72,-134.3"/>
</g>
<!-- DetailComponent -->
<g id="node3" class="node">
<title>DetailComponent</title>
<polygon fill="#ffffb3" stroke="black" points="1425.54,-84.8 1310.46,-84.8 1310.46,-48.8 1425.54,-48.8 1425.54,-84.8"/>
<text text-anchor="middle" x="1368" y="-62.6" font-family="Times,serif" font-size="14.00">DetailComponent</text>
</g>
<!-- DetailComponent&#45;&gt;AppModule -->
<g id="edge3" class="edge">
<title>DetailComponent&#45;&gt;AppModule</title>
<path fill="none" stroke="black" d="M1368,-84.91C1368,-104.14 1368,-131.8 1368,-131.8 1368,-131.8 943.82,-131.8 943.82,-131.8"/>
<polygon fill="black" stroke="black" points="943.82,-128.3 933.82,-131.8 943.82,-135.3 943.82,-128.3"/>
</g>
<!-- FooterComponent -->
<g id="node4" class="node">
<title>FooterComponent</title>
<polygon fill="#ffffb3" stroke="black" points="1291.88,-84.8 1174.12,-84.8 1174.12,-48.8 1291.88,-48.8 1291.88,-84.8"/>
<text text-anchor="middle" x="1233" y="-62.6" font-family="Times,serif" font-size="14.00">FooterComponent</text>
</g>
<!-- FooterComponent&#45;&gt;AppModule -->
<g id="edge4" class="edge">
<title>FooterComponent&#45;&gt;AppModule</title>
<path fill="none" stroke="black" d="M1233,-84.82C1233,-102.17 1233,-125.8 1233,-125.8 1233,-125.8 943.81,-125.8 943.81,-125.8"/>
<polygon fill="black" stroke="black" points="943.81,-122.3 933.81,-125.8 943.81,-129.3 943.81,-122.3"/>
</g>
<!-- HeaderComponent -->
<g id="node5" class="node">
<title>HeaderComponent</title>
<polygon fill="#ffffb3" stroke="black" points="1155.75,-84.8 1034.25,-84.8 1034.25,-48.8 1155.75,-48.8 1155.75,-84.8"/>
<text text-anchor="middle" x="1095" y="-62.6" font-family="Times,serif" font-size="14.00">HeaderComponent</text>
</g>
<!-- HeaderComponent&#45;&gt;AppModule -->
<g id="edge5" class="edge">
<title>HeaderComponent&#45;&gt;AppModule</title>
<path fill="none" stroke="black" d="M1095,-85.04C1095,-100.37 1095,-119.8 1095,-119.8 1095,-119.8 944.06,-119.8 944.06,-119.8"/>
<polygon fill="black" stroke="black" points="944.06,-116.3 934.06,-119.8 944.06,-123.3 944.06,-116.3"/>
</g>
<!-- HomeComponent -->
<g id="node6" class="node">
<title>HomeComponent</title>
<polygon fill="#ffffb3" stroke="black" points="1015.55,-84.8 900.45,-84.8 900.45,-48.8 1015.55,-48.8 1015.55,-84.8"/>
<text text-anchor="middle" x="958" y="-62.6" font-family="Times,serif" font-size="14.00">HomeComponent</text>
</g>
<!-- HomeComponent&#45;&gt;AppModule -->
<g id="edge6" class="edge">
<title>HomeComponent&#45;&gt;AppModule</title>
<path fill="none" stroke="black" d="M917.03,-84.91C917.03,-84.91 917.03,-103.79 917.03,-103.79"/>
<polygon fill="black" stroke="black" points="913.53,-103.79 917.03,-113.79 920.53,-103.79 913.53,-103.79"/>
</g>
<!-- ProfilComponent -->
<g id="node7" class="node">
<title>ProfilComponent</title>
<polygon fill="#ffffb3" stroke="black" points="882.72,-84.8 769.28,-84.8 769.28,-48.8 882.72,-48.8 882.72,-84.8"/>
<text text-anchor="middle" x="826" y="-62.6" font-family="Times,serif" font-size="14.00">ProfilComponent</text>
</g>
<!-- ProfilComponent&#45;&gt;AppModule -->
<g id="edge7" class="edge">
<title>ProfilComponent&#45;&gt;AppModule</title>
<path fill="none" stroke="black" d="M866.39,-84.91C866.39,-84.91 866.39,-103.79 866.39,-103.79"/>
<polygon fill="black" stroke="black" points="862.89,-103.79 866.39,-113.79 869.89,-103.79 862.89,-103.79"/>
</g>
<!-- RegisterComponent -->
<g id="node8" class="node">
<title>RegisterComponent</title>
<polygon fill="#ffffb3" stroke="black" points="750.99,-84.8 623.01,-84.8 623.01,-48.8 750.99,-48.8 750.99,-84.8"/>
<text text-anchor="middle" x="687" y="-62.6" font-family="Times,serif" font-size="14.00">RegisterComponent</text>
</g>
<!-- RegisterComponent&#45;&gt;AppModule -->
<g id="edge8" class="edge">
<title>RegisterComponent&#45;&gt;AppModule</title>
<path fill="none" stroke="black" d="M687,-85.04C687,-100.37 687,-119.8 687,-119.8 687,-119.8 840.02,-119.8 840.02,-119.8"/>
<polygon fill="black" stroke="black" points="840.02,-123.3 850.02,-119.8 840.02,-116.3 840.02,-123.3"/>
</g>
<!-- RegisterFormComponent -->
<g id="node9" class="node">
<title>RegisterFormComponent</title>
<polygon fill="#ffffb3" stroke="black" points="605.32,-84.8 446.68,-84.8 446.68,-48.8 605.32,-48.8 605.32,-84.8"/>
<text text-anchor="middle" x="526" y="-62.6" font-family="Times,serif" font-size="14.00">RegisterFormComponent</text>
</g>
<!-- RegisterFormComponent&#45;&gt;AppModule -->
<g id="edge9" class="edge">
<title>RegisterFormComponent&#45;&gt;AppModule</title>
<path fill="none" stroke="black" d="M526,-84.82C526,-102.17 526,-125.8 526,-125.8 526,-125.8 840.02,-125.8 840.02,-125.8"/>
<polygon fill="black" stroke="black" points="840.02,-129.3 850.02,-125.8 840.02,-122.3 840.02,-129.3"/>
</g>
<!-- SpaceComponent -->
<g id="node10" class="node">
<title>SpaceComponent</title>
<polygon fill="#ffffb3" stroke="black" points="428.26,-84.8 313.74,-84.8 313.74,-48.8 428.26,-48.8 428.26,-84.8"/>
<text text-anchor="middle" x="371" y="-62.6" font-family="Times,serif" font-size="14.00">SpaceComponent</text>
</g>
<!-- SpaceComponent&#45;&gt;AppModule -->
<g id="edge10" class="edge">
<title>SpaceComponent&#45;&gt;AppModule</title>
<path fill="none" stroke="black" d="M371,-84.91C371,-104.14 371,-131.8 371,-131.8 371,-131.8 840.25,-131.8 840.25,-131.8"/>
<polygon fill="black" stroke="black" points="840.25,-135.3 850.25,-131.8 840.25,-128.3 840.25,-135.3"/>
</g>
<!-- SpacesComponent -->
<g id="node11" class="node">
<title>SpacesComponent</title>
<polygon fill="#ffffb3" stroke="black" points="296.21,-84.8 175.79,-84.8 175.79,-48.8 296.21,-48.8 296.21,-84.8"/>
<text text-anchor="middle" x="236" y="-62.6" font-family="Times,serif" font-size="14.00">SpacesComponent</text>
</g>
<!-- SpacesComponent&#45;&gt;AppModule -->
<g id="edge11" class="edge">
<title>SpacesComponent&#45;&gt;AppModule</title>
<path fill="none" stroke="black" d="M236,-85.08C236,-106.12 236,-137.8 236,-137.8 236,-137.8 840.22,-137.8 840.22,-137.8"/>
<polygon fill="black" stroke="black" points="840.22,-141.3 850.22,-137.8 840.22,-134.3 840.22,-141.3"/>
</g>
<!-- AppComponent  -->
<g id="node14" class="node">
<title>AppComponent </title>
<polygon fill="#80b1d3" stroke="black" points="946.44,-214.8 837.56,-214.8 837.56,-178.8 946.44,-178.8 946.44,-214.8"/>
<text text-anchor="middle" x="892" y="-192.6" font-family="Times,serif" font-size="14.00">AppComponent </text>
</g>
<!-- AppModule&#45;&gt;AppComponent  -->
<g id="edge13" class="edge">
<title>AppModule&#45;&gt;AppComponent </title>
<path fill="none" stroke="black" stroke-dasharray="1,5" d="M892,-149.91C892,-149.91 892,-168.79 892,-168.79"/>
<polygon fill="black" stroke="black" points="888.5,-168.79 892,-178.79 895.5,-168.79 888.5,-168.79"/>
</g>
<!-- AppRoutingModule -->
<g id="node13" class="node">
<title>AppRoutingModule</title>
<polygon fill="#8dd3c7" stroke="black" points="152.28,-84.8 149.28,-88.8 128.28,-88.8 125.28,-84.8 23.72,-84.8 23.72,-48.8 152.28,-48.8 152.28,-84.8"/>
<text text-anchor="middle" x="88" y="-62.6" font-family="Times,serif" font-size="14.00">AppRoutingModule</text>
</g>
<!-- AppRoutingModule&#45;&gt;AppModule -->
<g id="edge12" class="edge">
<title>AppRoutingModule&#45;&gt;AppModule</title>
<path fill="none" stroke="black" d="M88,-85.05C88,-107.82 88,-143.8 88,-143.8 88,-143.8 840.19,-143.8 840.19,-143.8"/>
<polygon fill="black" stroke="black" points="840.19,-147.3 850.19,-143.8 840.19,-140.3 840.19,-147.3"/>
</g>
</g>
</svg>
